<svg width="208" height="56" viewBox="0 0 208 56" fill="none" xmlns="http://www.w3.org/2000/svg">
<path d="M208 2.56104L204.25 4.7261L204.25 0.395972L208 2.56104ZM80.8318 55.936L-3.57102e-06 55.936L-3.52084e-06 55.186L80.8318 55.186L80.8318 55.936ZM204.625 2.93604L144.795 2.93603L144.795 2.18603L204.625 2.18604L204.625 2.93604ZM127.503 11.2585L98.7098 47.3314L98.1236 46.8635L126.917 10.7907L127.503 11.2585ZM144.795 2.93603C138.066 2.93603 131.702 5.99895 127.503 11.2585L126.917 10.7907C131.258 5.35277 137.837 2.18603 144.795 2.18603L144.795 2.93603ZM80.8318 55.186C87.5615 55.186 93.9254 52.1231 98.1236 46.8635L98.7098 47.3314C94.3692 52.7693 87.7896 55.936 80.8318 55.936L80.8318 55.186Z" fill="#858D9D"/>
</svg>
