<svg width="208" height="56" viewBox="0 0 208 56" fill="none" xmlns="http://www.w3.org/2000/svg">
<path d="M208 53.2788L204.25 51.1137L204.25 55.4439L208 53.2788ZM80.9605 0.9038L-3.50411e-06 0.903809L-3.45394e-06 1.65381L80.9605 1.6538L80.9605 0.9038ZM204.625 52.9038L144.667 52.9038L144.667 53.6538L204.625 53.6538L204.625 52.9038ZM127.504 44.7416L98.7049 9.34267L98.1231 9.81599L126.922 45.2149L127.504 44.7416ZM144.667 52.9038C138.009 52.9038 131.705 49.9059 127.504 44.7416L126.922 45.2149C131.266 50.5543 137.783 53.6538 144.667 53.6538L144.667 52.9038ZM80.9605 1.6538C87.618 1.6538 93.9216 4.65167 98.1231 9.81599L98.7049 9.34267C94.361 4.00329 87.8437 0.903799 80.9605 0.9038L80.9605 1.6538Z" fill="#858D9D"/>
</svg>
